<?xml version="1.0" encoding="utf-8"?>
<!-- Generator: Adobe Illustrator 24.0.0, SVG Export Plug-In . SVG Version: 6.00 Build 0)  -->
<svg version="1.1" id="Layer_1" xmlns="http://www.w3.org/2000/svg" xmlns:xlink="http://www.w3.org/1999/xlink" x="0px" y="0px"
	 viewBox="0 0 60 60" style="enable-background:new 0 0 60 60;" xml:space="preserve">
<style type="text/css">
	.st0{fill:#99C93E;}
	.st1{fill:#131F35;}
</style>
<g>
	<rect x="26.87" y="20.43" class="st0" width="5.87" height="1.98"/>
	<path class="st0" d="M33.15,41.36c-0.18-0.04-0.28-0.06-0.28-0.06H22.1c-7.07,2.15-12.83,12.5-19.21,9.65
		c-1.18-0.53-1.76-1.93-1.93-3.86c-0.23,3.34,0.24,5.9,1.93,6.66c6.38,2.85,12.14-7.51,19.21-9.65h10.77c0,0,0.07,0.02,0.19,0.04
		C32.91,43.23,32.94,42.28,33.15,41.36z"/>
	<path class="st0" d="M59.18,47.08c-0.17,1.93-0.75,3.34-1.93,3.86c-4.35,1.95-8.41-2.26-12.8-5.8c-0.34,0.66-0.78,1.27-1.32,1.79
		c0.1,0.05,0.18,0.1,0.23,0.14c4.81,3.67,9.19,8.77,13.89,6.66C58.94,52.98,59.41,50.42,59.18,47.08z"/>
	<g>
		<path class="st0" d="M41.01,44.98c0,1.57-1.27,2.84-2.84,2.84c-1.57,0-2.84-1.27-2.84-2.84c0-1.57,1.27-2.84,2.84-2.84
			C39.74,42.14,41.01,43.42,41.01,44.98z"/>
		<path class="st1" d="M38.18,48.32c-1.84,0-3.34-1.5-3.34-3.34c0-1.84,1.5-3.34,3.34-3.34s3.34,1.5,3.34,3.34
			C41.52,46.82,40.02,48.32,38.18,48.32z M38.18,42.65c-1.29,0-2.34,1.05-2.34,2.34c0,1.29,1.05,2.34,2.34,2.34s2.34-1.05,2.34-2.34
			C40.51,43.69,39.46,42.65,38.18,42.65z"/>
	</g>
	<path class="st1" d="M46.33,28.87c0,0.97-0.79,1.75-1.75,1.75s-1.75-0.79-1.75-1.75c0-0.97,0.79-1.75,1.75-1.75
		S46.33,27.9,46.33,28.87z"/>
	<circle class="st1" cx="44.57" cy="37.28" r="1.75"/>
	<circle class="st1" cx="48.78" cy="33.07" r="1.75"/>
	<circle class="st1" cx="40.36" cy="33.07" r="1.75"/>
	<g>
		<path class="st0" d="M21,31.46h-3.07c-0.23,0-0.41-0.18-0.41-0.41v-3.07c0-0.23-0.18-0.41-0.41-0.41h-2.4
			c-0.23,0-0.41,0.18-0.41,0.41v3.07c0,0.23-0.18,0.41-0.41,0.41h-3.07c-0.23,0-0.41,0.18-0.41,0.41v2.4c0,0.23,0.18,0.41,0.41,0.41
			h3.07c0.23,0,0.41,0.18,0.41,0.41v3.07c0,0.23,0.18,0.41,0.41,0.41h2.4c0.23,0,0.41-0.18,0.41-0.41V35.1
			c0-0.23,0.18-0.41,0.41-0.41H21c0.23,0,0.41-0.18,0.41-0.41v-2.4C21.42,31.65,21.23,31.46,21,31.46z"/>
		<path class="st1" d="M17.12,39.08h-2.4c-0.5,0-0.91-0.41-0.91-0.91v-2.98h-2.98c-0.5,0-0.91-0.41-0.91-0.91v-2.4
			c0-0.5,0.41-0.91,0.91-0.91h2.98v-2.98c0-0.5,0.41-0.91,0.91-0.91h2.4c0.5,0,0.91,0.41,0.91,0.91v2.98H21
			c0.5,0,0.91,0.41,0.91,0.91v2.4c0,0.5-0.41,0.91-0.91,0.91h-2.98v2.98C18.03,38.67,17.62,39.08,17.12,39.08z M14.8,38.07h2.22
			V35.1c0-0.5,0.41-0.91,0.91-0.91h2.98v-2.22h-2.98c-0.5,0-0.91-0.41-0.91-0.91v-2.98H14.8v2.98c0,0.5-0.41,0.91-0.91,0.91h-2.98
			v2.22h2.98c0.5,0,0.91,0.41,0.91,0.91V38.07z"/>
	</g>
	<g>
		<path class="st1" d="M27.41,38.11h-4.35c-0.45,0-0.82-0.37-0.82-0.82s0.37-0.82,0.82-0.82h4.35c0.45,0,0.82,0.37,0.82,0.82
			S27.86,38.11,27.41,38.11z"/>
	</g>
	<g>
		<path class="st1" d="M25.68,40.56h-2.32c-0.45,0-0.82-0.37-0.82-0.82c0-0.45,0.37-0.82,0.82-0.82h2.32c0.45,0,0.82,0.37,0.82,0.82
			C26.5,40.2,26.14,40.56,25.68,40.56z"/>
	</g>
	<path class="st1" d="M32.75,23.16h-5.87c-0.42,0-0.75-0.34-0.75-0.75v-5.13c0-0.42,0.34-0.75,0.75-0.75h5.87
		c0.42,0,0.75,0.34,0.75,0.75v5.13C33.5,22.83,33.16,23.16,32.75,23.16z M27.63,21.66h4.37v-3.62h-4.37V21.66z"/>
	<path class="st1" d="M56.77,32.37c-1.96-6.45-7.83-10.79-14.6-10.79H17.84c-1.65,0-3.24,0.26-4.73,0.74
		c-0.05,0.39,0,0.98,0.41,1.59c1.36-0.45,2.82-0.69,4.32-0.69h24.33c5.95,0,11.31,3.96,13.03,9.62c3.49,11.5,4.11,19.03,1.65,20.13
		c-3.33,1.49-6.71-1.33-10.28-4.32c-0.74-0.61-1.49-1.24-2.26-1.84c0.18-0.58,0.27-1.2,0.27-1.84c0-3.53-2.87-6.4-6.4-6.4
		c-2.93,0-5.4,1.98-6.15,4.67h-9.99c-0.08,0-0.16,0.01-0.24,0.04c-3.02,0.92-5.73,3.18-8.35,5.37c-3.58,2.99-6.96,5.81-10.29,4.32
		c-2.46-1.11-1.85-8.63,1.65-20.14c0.57-1.87,1.51-3.54,2.73-4.94c0.01-1.12-0.81-1.17-1.2-1.12c-1.38,1.58-2.46,3.47-3.1,5.59
		c-6,19.75-2.05,21.53-0.74,22.11c0.88,0.39,1.74,0.56,2.59,0.56c3.29,0,6.4-2.6,9.43-5.13c2.46-2.05,5-4.18,7.66-5.02h9.63
		c0,0.03,0,0.05,0,0.08c0,3.53,2.87,6.4,6.4,6.4c2.28,0,4.29-1.21,5.42-3.01c0.64,0.51,1.29,1.04,1.91,1.56
		c3.81,3.18,7.74,6.47,12.01,4.56C58.82,53.9,62.77,52.13,56.77,32.37z M38.18,49.49c-2.49,0-4.51-2.02-4.51-4.51
		c0-2.49,2.02-4.51,4.51-4.51s4.51,2.02,4.51,4.51C42.68,47.47,40.66,49.49,38.18,49.49z"/>
	<path class="st1" d="M32.64,4.95H17.53c-2.38,0-4.32,1.94-4.32,4.32c0,2.38,1.94,4.32,4.32,4.32h8.2c1.47,0,2.67,1.2,2.67,2.67
		v0.69c0,0.45,0.37,0.82,0.82,0.82s0.82-0.37,0.82-0.82v-0.69c0-2.38-1.94-4.32-4.32-4.32h-8.2c-1.47,0-2.67-1.2-2.67-2.67
		c0-1.47,1.2-2.67,2.67-2.67h14.99c0.14-0.3,0.23-0.64,0.23-0.99C32.75,5.37,32.7,5.16,32.64,4.95z"/>
</g>
</svg>
