<?xml version="1.0" encoding="utf-8"?>
<!-- Generator: Adobe Illustrator 24.0.0, SVG Export Plug-In . SVG Version: 6.00 Build 0)  -->
<svg version="1.1" id="Layer_1" xmlns="http://www.w3.org/2000/svg" xmlns:xlink="http://www.w3.org/1999/xlink" x="0px" y="0px"
	 viewBox="0 0 60 60" style="enable-background:new 0 0 60 60;" xml:space="preserve">
<style type="text/css">
	.st0{fill:#99C93E;}
	.st1{fill:#131F35;}
	.st2{fill:#FFFFFF;}
</style>
<path class="st0" d="M9.67,50.51H4.41c-1.92,0-3.48-1.56-3.48-3.48V23.87c0-2.15,1.74-3.89,3.89-3.89h4.85V50.51z"/>
<path class="st1" d="M17.68,27.24H6.41c-0.51,0-0.93-0.42-0.93-0.93c0-0.51,0.42-0.93,0.93-0.93h11.28c0.51,0,0.93,0.42,0.93,0.93
	C18.61,26.82,18.2,27.24,17.68,27.24z"/>
<rect x="33.68" y="40.33" class="st0" width="8.62" height="17.71"/>
<g>
	<line class="st2" x1="19.87" y1="44.91" x2="38.77" y2="44.91"/>
	<path class="st1" d="M38.77,45.84h-18.9c-0.51,0-0.93-0.42-0.93-0.93s0.42-0.93,0.93-0.93h18.9c0.51,0,0.93,0.42,0.93,0.93
		S39.28,45.84,38.77,45.84z"/>
</g>
<g>
	<line class="st2" x1="19.87" y1="50.01" x2="28.73" y2="50.01"/>
	<path class="st1" d="M28.73,50.94h-8.87c-0.51,0-0.93-0.42-0.93-0.93s0.42-0.93,0.93-0.93h8.87c0.51,0,0.93,0.42,0.93,0.93
		S29.25,50.94,28.73,50.94z"/>
</g>
<g>
	<line class="st2" x1="19.87" y1="54.81" x2="38.77" y2="54.81"/>
	<path class="st1" d="M38.77,55.74h-18.9c-0.51,0-0.93-0.42-0.93-0.93s0.42-0.93,0.93-0.93h18.9c0.51,0,0.93,0.42,0.93,0.93
		S39.28,55.74,38.77,55.74z"/>
</g>
<circle class="st1" cx="41.05" cy="26.18" r="2.3"/>
<circle class="st1" cx="46.97" cy="26.18" r="2.3"/>
<circle class="st1" cx="53.03" cy="26.18" r="2.3"/>
<path class="st1" d="M59.07,29.4c0.51,0,0.93-0.42,0.93-0.93v-3.92c0-3.03-2.47-5.5-5.5-5.5h-3.41V6.82c0-0.51-0.42-0.93-0.93-0.93
	H45.6V0.93C45.6,0.42,45.18,0,44.67,0H26.71c-0.51,0-0.93,0.42-0.93,0.93s0.42,0.93,0.93,0.93h17.03v17.19H16.87V1.86h3.61
	c0.51,0,0.93-0.42,0.93-0.93S20.99,0,20.48,0h-4.54c-0.51,0-0.93,0.42-0.93,0.93v4.96H9.67c-0.51,0-0.93,0.42-0.93,0.93v12.23H5.5
	c-3.03,0-5.5,2.47-5.5,5.5v21.38c0,3.03,2.47,5.5,5.5,5.5h9.51v7.69c0,0.51,0.42,0.93,0.93,0.93h27.41c0.51,0,0.93-0.42,0.93-0.93
	v-7.69h10.22c3.03,0,5.5-2.47,5.5-5.5v-4.05c0-0.51-0.42-0.93-0.93-0.93s-0.93,0.42-0.93,0.93v4.05c0,2.01-1.63,3.64-3.64,3.64
	h-3.41V39.32c0-0.51-0.42-0.93-0.93-0.93h-6.81H15.94H9.67c-0.51,0-0.93,0.42-0.93,0.93v2.52c0,0.51,0.42,0.93,0.93,0.93
	s0.93-0.42,0.93-0.93v-1.59h4.41v9.33H10.6V45.5c0-0.51-0.42-0.93-0.93-0.93s-0.93,0.42-0.93,0.93v4.08H5.5
	c-2.01,0-3.64-1.63-3.64-3.64V24.55c0-2.01,1.63-3.64,3.64-3.64h10.44h28.73h9.83c2.01,0,3.64,1.63,3.64,3.64v3.92
	C58.14,28.99,58.55,29.4,59.07,29.4z M49.23,49.58h-4.95v-9.33h4.95V49.58z M42.42,40.25v17.95H16.87V40.25H42.42z M10.6,7.75h4.41
	v11.3H10.6V7.75z M45.6,7.75h3.63v11.3H45.6V7.75z"/>
<path class="st1" d="M59.07,38.46c-0.51,0-0.93-0.42-0.93-0.93V32.1c0-0.51,0.42-0.93,0.93-0.93S60,31.58,60,32.1v5.43
	C60,38.04,59.58,38.46,59.07,38.46z"/>
</svg>
