<?xml version="1.0" encoding="utf-8"?>
<!-- Generator: Adobe Illustrator 26.0.3, SVG Export Plug-In . SVG Version: 6.00 Build 0)  -->
<svg version="1.1" id="Layer_1" xmlns="http://www.w3.org/2000/svg" xmlns:xlink="http://www.w3.org/1999/xlink" x="0px" y="0px"
	 viewBox="0 0 211.2 46.6" style="enable-background:new 0 0 211.2 46.6;" xml:space="preserve">
<style type="text/css">
	.st0{fill-rule:evenodd;clip-rule:evenodd;fill:#72BF44;}
</style>
<g id="logo">
	<path class="st0" d="M81.1,0L67.7,17l-5-17H50.9l8.3,28.7l-4.9,17.8h11.4l4-17.7L93.8,0H81.1z M99.6,0L72.2,46.5h11.1l5.3-9.7h16.1
		v9.7H116L112.8,0H99.6z M104.8,28.9H92.9l10.7-19.8h1.2C104.8,9.1,104.8,28.9,104.8,28.9z M192.5,18.7c-3.4-1.3-10.5-2.9-7.4-8
		c1.3-2,7.3-3.2,10.4-2.1c2.1,0.8,3.9,2.3,5.1,4.2l10.7-5.2c0,0-4.8-8.3-17.5-7.5c-15.6,1-22.6,8.9-22.4,17
		c0.3,10.7,22.5,8.3,21.4,16.1c-0.6,4.2-7.7,6-12.4,4.8c-4-1-5.8-5.5-5.8-5.5h-17.7l6.6,3.4c0,0,2.3,9,11.7,10.3
		c11.3,1.5,26.9-1.3,30.2-14.2C207.7,22.7,195.9,20,192.5,18.7L192.5,18.7z M161.8,30.8L170.1,0h-10l-7.7,28.1h-0.1L143.6,0H132
		l-12.1,46.5h9.5l8.4-32.6h0.1L148,46.5h9.6l2.7-10.1l-9.3-5.6C151,30.8,161.8,30.8,161.8,30.8z M43.9,3.2c-0.6-0.5-1.2-0.9-1.9-1.3
		c-2.7-1.1-5.6-1.8-8.5-1.9H12.2L0,46.5h10.2L15,28.9l4,0.2c1.5-0.1,2.9,0.4,4,1.3c1.5,1.1,2.9,3.2,4.1,6.3c2.3,5.7,2.9,7.2,3.7,9.8
		h12.8c-1.7-5-3.8-9.9-6.3-14.6c-0.9-1.7-2-3.2-3.4-4.5c0.1,0.1,1.2-0.1,1.4-0.1c0.5-0.1,0.9-0.1,1.4-0.2c0.8-0.1,1.7-0.3,2.5-0.5
		c1.5-0.4,3-1.1,4.3-2.1c1.1-0.8,2-1.9,2.6-3.2c0.4-0.9,0.8-1.7,1.2-2.6c0.6-1.5,0.9-3.1,1.1-4.7c0.3-2.4-0.2-4.8-1.2-6.9
		C46.3,5.7,45.2,4.3,43.9,3.2z M37.1,17.2c-1.1,1.3-2.6,2.3-4.2,2.8c-1.8,0.6-5.4,0.7-10.7,0.5l-5.3-0.2l3.2-12.5l11,0.5
		c2.9,0.1,4.8,0.4,5.7,1c1.4,0.8,2.1,2.4,2,3.9C38.7,14.6,38.1,16.1,37.1,17.2z"/>
</g>
</svg>
